<?xml version="1.0" encoding="utf-8"?>
<!-- Generator: Adobe Illustrator 18.0.0, SVG Export Plug-In . SVG Version: 6.00 Build 0)  -->
<!DOCTYPE svg PUBLIC "-//W3C//DTD SVG 1.1//EN" "http://www.w3.org/Graphics/SVG/1.1/DTD/svg11.dtd">
<svg version="1.1" id="Layer_1" xmlns="http://www.w3.org/2000/svg" xmlns:xlink="http://www.w3.org/1999/xlink" x="0px" y="0px"
	 viewBox="0 0 74.1 74.4" enable-background="new 0 0 74.1 74.4" xml:space="preserve">
<g>
	<path fill="#4E4F50" d="M16,37.3c0,11.7,9.5,21.2,21.2,21.2c11.7,0,21.2-9.5,21.2-21.2C58.5,25.5,49,16,37.3,16
		C25.6,16,16,25.5,16,37.3z M52.1,36c0.7,8.2-5.3,15.4-13.5,16.1c-8.2,0.7-15.4-5.3-16.1-13.5c-0.7-8.2,5.3-15.4,13.5-16.1
		C44.2,21.8,51.4,27.8,52.1,36z"/>
	<path fill="#4E4F50" d="M66.4,49l3.5-0.1c0.8,0,1.7-0.7,1.9-1.5l1.2-5.6c0.1-0.8-0.4-1.8-1.1-2.1l-3.2-1.5
		c-0.7-0.4-1.3-1.3-1.4-2.1c0,0,0-0.4-0.1-1.4c0-0.3,0-0.3,0-0.3c0-0.4,0.5-1,1.2-1.4l3-1.9c0.7-0.4,1.1-1.4,0.9-2.2l-1.8-5.4
		c-0.3-0.8-1.2-1.3-2-1.3l-3.5,0.3c-0.8,0.1-1.8-0.4-2.2-1c-0.4-0.6-1.1-2.7-0.7-3.4l1.6-3.1c0.4-0.7,0.2-1.8-0.4-2.4L59,8.7
		c-0.6-0.5-1.7-0.5-2.4-0.1l-2.9,2c-0.7,0.5-1.7,0.6-2.4,0.2C50.8,10.4,49,9,49,8.1l-0.1-3.5c0-0.8-0.7-1.7-1.5-1.9l-5.6-1.2
		C41,1.5,40.1,2,39.7,2.7l-1.5,3.2c-0.4,0.7-1.3,1.3-2.1,1.4c0,0-0.4,0-1.4,0.1c-0.3,0-0.3,0-0.3,0c-0.4,0-1-0.5-1.4-1.2l-1.9-3
		c-0.4-0.7-1.4-1.1-2.2-0.9l-5.4,1.8c-0.8,0.3-1.3,1.2-1.3,2l0.3,3.5c0.1,0.8-0.4,1.8-1,2.2c-0.6,0.4-2.7,1.1-3.4,0.7l-3.1-1.6
		c-0.7-0.4-1.8-0.2-2.4,0.4l-3.8,4.2c-0.5,0.6-0.5,1.7-0.1,2.4l2,2.9c0.5,0.7,0.6,1.7,0.2,2.4c-0.3,0.6-1.8,2.3-2.6,2.4l-3.5,0.1
		c-0.8,0-1.7,0.7-1.9,1.5l-1.2,5.6c-0.1,0.8,0.4,1.8,1.1,2.1l3.2,1.5c0.7,0.4,1.3,1.3,1.4,2.1c0,0,0,0.4,0.1,1.4c0,0.3,0,0.3,0,0.3
		c0,0.4-0.5,1-1.2,1.4l-3,1.9C2.5,44,2.1,45,2.4,45.7l1.8,5.4c0.3,0.8,1.2,1.3,2,1.3l3.5-0.3c0.8-0.1,1.8,0.4,2.2,1
		c0.4,0.6,1.1,2.7,0.7,3.4l-1.6,3.1c-0.4,0.7-0.2,1.8,0.4,2.4l4.2,3.8c0.6,0.5,1.7,0.5,2.4,0.1l2.9-2c0.7-0.5,1.7-0.6,2.4-0.2
		c0.6,0.3,2.3,1.8,2.4,2.6l0.1,3.5c0,0.8,0.7,1.7,1.5,1.9l5.6,1.2c0.8,0.1,1.8-0.4,2.1-1.1l1.5-3.2c0.4-0.7,1.3-1.3,2.1-1.4
		c0,0,0.4,0,1.4-0.1c0.3,0,0.3,0,0.3,0c0.4,0,1,0.5,1.4,1.2l1.9,3c0.4,0.7,1.4,1.1,2.2,0.9l5.4-1.8c0.8-0.3,1.3-1.2,1.3-2l-0.3-3.5
		c-0.1-0.8,0.4-1.8,1-2.2c0.6-0.4,2.7-1.1,3.4-0.7l3.1,1.6c0.7,0.4,1.8,0.2,2.4-0.4l3.8-4.2c0.5-0.6,0.5-1.7,0.1-2.4l-2-2.9
		c-0.5-0.7-0.6-1.7-0.2-2.4C64.1,50.7,65.6,49,66.4,49z M37.3,61.4c-13.3,0-24.2-10.9-24.2-24.2c0-13.3,10.9-24.2,24.2-24.2
		c13.3,0,24.2,10.9,24.2,24.2C61.5,50.6,50.6,61.4,37.3,61.4z"/>
</g>
</svg>
